<svg width="900" height="700" xmlns="http://www.w3.org/2000/svg">
 <title>code review</title>

 <g>
  <title>background</title>
  <rect fill="none" id="canvas_background" height="702" width="902" y="-1" x="-1"/>
 </g>
 <g>
  <title>Layer 1</title>
  <rect id="svg_6" fill="#3f3d56" height="590" width="752" y="61.999706" x="72.193188"/>
  <path id="svg_7" fill="#f2f2f2" d="m439.637759,142.628846l-185.51772,0a2.25143,2.25143 0 1 1 0,-4.50285l185.51772,0a2.25143,2.25143 0 0 1 0,4.50285z"/>
  <path id="svg_8" fill="#f2f2f2" d="m642.716609,167.394566l-291.78514,0a2.25143,2.25143 0 0 1 0,-4.50286l291.78514,0a2.25143,2.25143 0 1 1 0,4.50286z"/>
  <path id="svg_9" fill="#f2f2f2" d="m440.538329,192.160276l-185.51772,0a2.25143,2.25143 0 1 1 0,-4.50286l185.51772,0a2.25143,2.25143 0 1 1 0,4.50286z"/>
  <path id="svg_10" fill="#f2f2f2" d="m642.716609,192.610566l-185.51771,0a2.25143,2.25143 0 0 1 0,-4.50286l185.51771,0a2.25143,2.25143 0 1 1 0,4.50286z"/>
  <path id="svg_11" fill="#f2f2f2" d="m440.988609,216.925996l-185.51771,0a2.25143,2.25143 0 0 1 0,-4.50286l185.51771,0a2.25143,2.25143 0 1 1 0,4.50286z"/>
  <path id="svg_12" fill="#f2f2f2" d="m441.438899,241.691706l-185.51772,0a2.25143,2.25143 0 0 1 0,-4.50286l185.51772,0a2.25143,2.25143 0 1 1 0,4.50286z"/>
  <path id="svg_13" fill="#f2f2f2" d="m525.642329,143.079136l-53.13372,0a2.25143,2.25143 0 0 1 0,-4.50286l53.13372,0a2.25143,2.25143 0 1 1 0,4.50286z"/>
  <path id="svg_14" fill="#f2f2f2" d="m525.642329,216.925996l-53.13372,0a2.25143,2.25143 0 0 1 0,-4.50286l53.13372,0a2.25143,2.25143 0 1 1 0,4.50286z"/>
  <path id="svg_15" fill="#f2f2f2" d="m525.642329,241.241416l-53.13372,0a2.25143,2.25143 0 1 1 0,-4.50285l53.13372,0a2.25143,2.25143 0 1 1 0,4.50285z"/>
  <path id="svg_16" fill="#f2f2f2" d="m614.798899,241.241416l-53.13372,0a2.25143,2.25143 0 0 1 0,-4.50285l53.13372,0a2.25143,2.25143 0 1 1 0,4.50285z"/>
  <path id="svg_17" fill="#f2f2f2" d="m306.803469,167.394566l-53.13371,0a2.25143,2.25143 0 0 1 0,-4.50286l53.13371,0a2.25143,2.25143 0 0 1 0,4.50286z"/>
  <path id="svg_18" fill="#f2f2f2" d="m439.862899,507.360276l-185.51772,0a2.25143,2.25143 0 0 1 0,-4.50286l185.51772,0a2.25143,2.25143 0 0 1 0,4.50286z"/>
  <path id="svg_19" fill="#f2f2f2" d="m438.962329,556.891706l-185.51772,0a2.25143,2.25143 0 1 1 0,-4.50286l185.51772,0a2.25143,2.25143 0 0 1 0,4.50286z"/>
  <path id="svg_20" fill="#f2f2f2" d="m439.412609,581.657416l-185.51771,0a2.25143,2.25143 0 1 1 0,-4.50285l185.51771,0a2.25143,2.25143 0 1 1 0,4.50285z"/>
  <path id="svg_21" fill="#f2f2f2" d="m518.662899,557.341996l-53.13372,0a2.25143,2.25143 0 0 1 0,-4.50286l53.13372,0a2.25143,2.25143 0 0 1 0,4.50286z"/>
  <path id="svg_22" fill="#f2f2f2" d="m518.662899,581.657416l-53.13372,0a2.25142,2.25142 0 0 1 0,-4.50285l53.13372,0a2.25142,2.25142 0 1 1 0,4.50285z"/>
  <path id="svg_23" fill="#f2f2f2" d="m607.819469,557.341996l-53.13371,0a2.25143,2.25143 0 1 1 0,-4.50286l53.13371,0a2.25143,2.25143 0 0 1 0,4.50286z"/>
  <path id="svg_24" fill="#f2f2f2" d="m642.941759,532.125996l-291.78515,0a2.25143,2.25143 0 0 1 0,-4.50286l291.78515,0a2.25143,2.25143 0 0 1 0,4.50286z"/>
  <path id="svg_25" fill="#f2f2f2" d="m307.028609,532.125996l-53.13371,0a2.25143,2.25143 0 0 1 0,-4.50286l53.13371,0a2.25143,2.25143 0 0 1 0,4.50286z"/>
  <path id="svg_26" fill="#f2f2f2" d="m642.941759,606.873416l-291.78515,0a2.25143,2.25143 0 1 1 0,-4.50285l291.78515,0a2.25142,2.25142 0 0 1 0,4.50285z"/>
  <path id="svg_27" fill="#f2f2f2" d="m307.028609,606.873416l-53.13371,0a2.25143,2.25143 0 1 1 0,-4.50285l53.13371,0a2.25143,2.25143 0 1 1 0,4.50285z"/>
  <polygon id="svg_28" fill="#6c63ff" points="395.0596504211426,301.12971115112305 323.0136604309082,372.2747001647949 395.0596504211426,443.4196891784668 411.2696723937988,427.2097282409668 356.7856636047363,372.7247123718262 411.7196235656738,317.7897148132324 395.0596504211426,301.12971115112305 "/>
  <polygon id="svg_29" fill="#6c63ff" points="501.3266792297363,301.12971115112305 573.3726387023926,372.2747001647949 501.3266792297363,443.4196891784668 485.1166572570801,427.2097282409668 539.6016426086426,372.7247123718262 484.6666450500488,317.7897148132324 501.3266792297363,301.12971115112305 "/>
  <circle id="svg_30" fill="#6c63ff" r="9" cy="76.999706" cx="92.193188"/>
  <circle id="svg_31" fill="#6c63ff" r="9" cy="76.999706" cx="116.193188"/>
  <circle id="svg_32" fill="#6c63ff" r="9" cy="76.999706" cx="140.193188"/>
  <rect id="svg_33" opacity="0.1" height="3" width="752" y="91.999706" x="72.193188"/>
 </g>
</svg>