<svg width="450" height="300" xmlns="http://www.w3.org/2000/svg">
 <title>hacker_mindset</title>

 <g>
  <title>background</title>
  <rect fill="none" id="canvas_background" height="302" width="452" y="-1" x="-1"/>
 </g>
 <g>
  <title>Layer 1</title>
  <rect id="svg_23" fill="#3f3d56" height="202" width="396.75193" y="51.81317" x="26.306748"/>
  <rect id="svg_24" fill="#6c63ff" height="3.34831" width="40.17978" y="119.83132" x="98.283828"/>
  <rect id="svg_25" fill="#6c63ff" height="3.34831" width="40.17978" y="119.83132" x="151.856868"/>
  <rect id="svg_26" fill="#6c63ff" height="3.34831" width="40.17978" y="150.80323" x="229.705178"/>
  <rect id="svg_27" fill="#6c63ff" height="3.34831" width="40.17978" y="150.80323" x="284.115298"/>
  <rect id="svg_28" fill="#6c63ff" height="3.34831" width="118.02809" y="119.83132" x="206.266978"/>
  <rect id="svg_29" fill="#6c63ff" height="3.34831" width="118.02809" y="150.80323" x="98.283828"/>
  <rect id="svg_30" fill="#6c63ff" height="3.34831" width="118.02809" y="181.77514" x="98.283828"/>
  <rect id="svg_31" fill="#6c63ff" height="3.34831" width="82.03371" y="181.77514" x="242.261358"/>
  <polygon id="svg_32" fill="#6c63ff" points="86.9907455444336,133.96648025512695 72.8547592163086,119.83150100708008 86.9907455444336,105.69548416137695 89.8187484741211,108.52348709106445 78.5107650756836,119.83150100708008 89.8187484741211,131.13847732543945 86.9907455444336,133.96648025512695 "/>
  <polygon id="svg_33" fill="#6c63ff" points="362.3747863769531,199.25947952270508 359.5467834472656,196.43144607543945 370.8547668457031,185.12248611450195 359.5467834472656,173.81547927856445 362.3747863769531,170.98747634887695 376.5107727050781,185.12248611450195 362.3747863769531,199.25947952270508 "/>
  <rect id="svg_34" fill="#6c63ff" transform="rotate(-73.13997650146484 -452.8473510742188,970.0162353515624) " height="4.00006" width="28.86361" y="1504.013861" x="515.743899"/>
 </g>
</svg>