<svg width="540" height="675" xmlns="http://www.w3.org/2000/svg">
 <title>startup life</title>

 <g>
  <title>background</title>
  <rect x="-1" y="-1" width="542" height="677" id="canvas_background" fill="none"/>
 </g>
 <g>
  <title>Layer 1</title>
  <path fill="#6c63ff" opacity="0.1" id="svg_1"/>
  <polygon points="508.69571685791016,462.25291872024536 510.3656997680664,463.9329113960266 511.1156997680664,461.04295778274536 510.31571197509766,458.1928906440735 508.2557144165039,458.1928906440735 508.69571685791016,462.25291872024536 " fill="#464a5f" id="svg_2"/>
  <polygon points="508.69571685791016,462.25291872024536 510.3656997680664,463.9329113960266 511.1156997680664,461.04295778274536 510.31571197509766,458.1928906440735 508.2557144165039,458.1928906440735 508.69571685791016,462.25291872024536 " opacity="0.1" id="svg_3"/>
  <polygon points="508.69571685791016,462.25291872024536 510.31571197509766,463.9829602241516 508.69571685791016,465.88292360305786 506.9556655883789,465.2329602241516 506.52567291259766,464.39293336868286 508.69571685791016,462.25291872024536 " fill="#9c9ca1" id="svg_4"/>
  <polygon points="508.69571685791016,462.25291872024536 510.31571197509766,463.9829602241516 508.69571685791016,465.88292360305786 506.9556655883789,465.2329602241516 506.52567291259766,464.39293336868286 508.69571685791016,462.25291872024536 " opacity="0.1" id="svg_5"/>
  <path d="m200.87569,158.472932l-182.88,182.88a17.58,17.58 0 0 0 -0.05,24.81l280.32,282.55a17.58,17.58 0 0 0 24.82,0.13l185.61,-182.94999l-307.82,-307.42001z" fill="#9c9ca1" id="svg_6"/>
  <path d="m200.87569,158.472932l-182.88,182.88a17.58,17.58 0 0 0 -0.05,24.81l280.32,282.55a17.58,17.58 0 0 0 24.82,0.13l185.61,-182.94999l-307.82,-307.42001z" opacity="0.1" id="svg_7"/>
  <path d="m200.87569,154.842932l-182.88,182.88a17.58,17.58 0 0 0 -0.05,24.81l280.32,282.54001a17.58,17.58 0 0 0 24.82,0.14l185.61,-183l-307.82,-307.37l0,-0.00001z" fill="#9c9ca1" id="svg_8"/>
  <path d="m220.07569,26.292932l-16.78,127.34001l307.82,307.41l17.68,-129.44a18.72,18.72 0 0 0 -5.44,-15.93l-297,-291.56a3.72,3.72 0 0 0 -6.28,2.18l0,-0.00001z" fill="#464a5f" id="svg_9"/>
  <path d="m220.07569,26.292932l-16.78,127.34001l307.82,307.41l17.68,-129.44a18.72,18.72 0 0 0 -5.44,-15.93l-297,-291.56a3.72,3.72 0 0 0 -6.28,2.18l0,-0.00001z" opacity="0.1" id="svg_10"/>
  <path d="m217.65569,27.502942l-16.78,127.33999l307.82,307.41001l17.68,-129.44a18.72,18.72 0 0 0 -5.44,-15.93l-297,-291.56a3.72,3.72 0 0 0 -6.28,2.18z" fill="#464a5f" id="svg_11"/>
  <g opacity="0.1" id="svg_12">
   <path d="m201.69569,213.362932l-11.13,11.23a3.53,3.53 0 0 0 0,5l11.28,11.57a3.54,3.54 0 0 0 5,0.10001l11.08,-10.46a3.53,3.53 0 0 0 0.18,-4.95l-11.28,-12.34a3.53,3.53 0 0 0 -5.13,-0.15l0,-0.00001z" id="svg_13"/>
   <path d="m222.43569,234.112932l-11.09,11.22001a3.53,3.53 0 0 0 0,4.94999l11.28,11.57a3.53,3.53 0 0 0 5,0.10001l11.08,-10.45a3.55,3.55 0 0 0 0.18,-5l-11.32,-12.31a3.53,3.53 0 0 0 -5.13,-0.08l0,-0.00001z" id="svg_14"/>
   <path d="m244.21569,255.882942l-11.09,11.23a3.54,3.54 0 0 0 0,4.95l11.29,11.57a3.54,3.54 0 0 0 5,0.1l11.08,-10.46a3.53,3.53 0 0 0 0.18,-4.95l-11.28,-12.34a3.53,3.53 0 0 0 -5.18,-0.1z" id="svg_15"/>
   <path d="m266.23569,277.912932l-11.08,11.28a3.54,3.54 0 0 0 0,4.95l11.29,11.57a3.54,3.54 0 0 0 5,0.1l11.07,-10.46a3.52,3.52 0 0 0 0.19,-4.95l-11.34,-12.38999a3.54,3.54 0 0 0 -5.13,-0.10001z" id="svg_16"/>
   <path d="m288.26569,299.942942l-11.08,11.25a3.54,3.54 0 0 0 0,5l11.29,11.57a3.54,3.54 0 0 0 5,0.1l11.07,-10.46a3.52,3.52 0 0 0 0.19,-4.95l-11.28,-12.34a3.54,3.54 0 0 0 -5.19,-0.17z" id="svg_17"/>
   <path d="m311.68569,320.562942l-13.77,13.95a1.66,1.66 0 0 0 0,2.32l13.87,14.20999a1.66,1.66 0 0 0 2.32,0l13.77,-13a1.65,1.65 0 0 0 0.08,-2.32l-13.86,-15.16a1.66,1.66 0 0 0 -2.41,0l0,0.00001z" id="svg_18"/>
   <path d="m333.71569,342.592932l-13.77,14a1.65,1.65 0 0 0 0,2.31l13.87,14.22001a1.66,1.66 0 0 0 2.32,0l13.77,-13a1.65,1.65 0 0 0 0.08,-2.32l-13.86,-15.16a1.66,1.66 0 0 0 -2.41,-0.05001z" id="svg_19"/>
   <path d="m353.21569,362.092932l-13.77,14a1.65,1.65 0 0 0 0,2.31l13.87,14.22001a1.66,1.66 0 0 0 2.32,0l13.77,-13a1.65,1.65 0 0 0 0.08,-2.32l-13.87,-15.11a1.66,1.66 0 0 0 -2.4,-0.10001z" id="svg_20"/>
   <path d="m375.05569,383.932942l-13.77,13.94a1.65,1.65 0 0 0 0,2.32l13.87,14.20999a1.65,1.65 0 0 0 2.32,0l13.77,-13a1.66,1.66 0 0 0 0.08,-2.31999l-13.86,-15.16001a1.66,1.66 0 0 0 -2.41,0.01l0,0.00001z" id="svg_21"/>
   <path d="m396.20569,405.082942l-13.77,13.93999a1.65,1.65 0 0 0 0,2.32l13.87,14.22001a1.66,1.66 0 0 0 2.32,0l13.77,-13a1.66,1.66 0 0 0 0.08,-2.32l-13.91,-15.11a1.66,1.66 0 0 0 -2.36,-0.05z" id="svg_22"/>
   <path d="m417.35569,426.192942l-13.79,14a1.65,1.65 0 0 0 0,2.31l13.87,14.22a1.66,1.66 0 0 0 2.32,0l13.77,-13a1.65,1.65 0 0 0 0.08,-2.32l-13.86,-15.16a1.66,1.66 0 0 0 -2.39,-0.05z" id="svg_23"/>
   <path d="m438.50569,447.382942l-13.77,13.95a1.66,1.66 0 0 0 0,2.32l13.83,14.21a1.66,1.66 0 0 0 2.32,0.05l13.77,-13a1.65,1.65 0 0 0 0.08,-2.32l-13.86,-15.16a1.66,1.66 0 0 0 -2.37,-0.05z" id="svg_24"/>
   <path d="m181.56569,233.502942l-11.08,11.22a3.53,3.53 0 0 0 0,5l11.29,11.57a3.53,3.53 0 0 0 5,0.1l11.07,-10.45a3.54,3.54 0 0 0 0.19,-5l-11.35,-12.35a3.54,3.54 0 0 0 -5.12,-0.09z" id="svg_25"/>
   <path d="m137.56569,277.492942l-11.09,11.22a3.54,3.54 0 0 0 0,5l11.28,11.48a3.53,3.53 0 0 0 4.95,0.11l11.08,-10.46a3.52,3.52 0 0 0 0.18,-4.95l-11.28,-12.3a3.53,3.53 0 0 0 -5.12,-0.1z" id="svg_26"/>
   <path d="m202.30569,254.242942l-11.09,11.22a3.53,3.53 0 0 0 0,5l11.28,11.57a3.54,3.54 0 0 0 5,0.11l11.07,-10.51a3.55,3.55 0 0 0 0.18,-5l-11.28,-12.33a3.52,3.52 0 0 0 -5.16,-0.06z" id="svg_27"/>
   <path d="m224.07569,276.022932l-11.08,11.22001a3.53,3.53 0 0 0 0,4.95l11.29,11.57a3.53,3.53 0 0 0 5,0.1l11.07,-10.45a3.54,3.54 0 0 0 0.19,-5l-11.28,-12.34a3.54,3.54 0 0 0 -5.19,-0.05l0,-0.00001z" id="svg_28"/>
   <path d="m246.10569,298.042932l-11.08,11.23a3.53,3.53 0 0 0 0,4.95l11.29,11.57a3.52,3.52 0 0 0 4.95,0.10001l11.08,-10.45a3.54,3.54 0 0 0 0.19,-5l-11.3,-12.25a3.55,3.55 0 0 0 -5.13,-0.15l0,-0.00001z" id="svg_29"/>
   <path d="m159.01569,297.532932l-11.09,11.22001a3.53,3.53 0 0 0 0,4.95l11.28,11.56999a3.53,3.53 0 0 0 5,0.10001l11.08,-10.45a3.55,3.55 0 0 0 0.18,-5l-11.28,-12.33a3.52,3.52 0 0 0 -5.17,-0.06l0,-0.00001z" id="svg_30"/>
   <path d="m180.78569,319.302932l-11.08,11.23a3.53,3.53 0 0 0 0,5l11.29,11.57a3.53,3.53 0 0 0 5,0.10001l11.07,-10.45a3.54,3.54 0 0 0 0.19,-5l-11.28,-12.34a3.54,3.54 0 0 0 -5.19,-0.11l0,-0.00001z" id="svg_31"/>
   <path d="m202.81569,341.332942l-11.08,11.23a3.53,3.53 0 0 0 0,4.95l11.29,11.57a3.54,3.54 0 0 0 5,0.1l11.07,-10.46a3.52,3.52 0 0 0 0.19,-4.95l-11.28,-12.34a3.54,3.54 0 0 0 -5.19,-0.1z" id="svg_32"/>
   <path d="m268.13569,320.072942l-11.08,11.23a3.53,3.53 0 0 0 0,4.95l11.29,11.57a3.53,3.53 0 0 0 5,0.1l11.08,-10.45a3.53,3.53 0 0 0 0.18,-5l-11.35,-12.28a3.53,3.53 0 0 0 -5.12,-0.12z" id="svg_33"/>
   <path d="m290.16569,342.102932l-11.09,11.23001a3.53,3.53 0 0 0 0,4.94999l11.29,11.57a3.53,3.53 0 0 0 5,0.10001l11.08,-10.46a3.52,3.52 0 0 0 0.18,-4.95l-11.34,-12.35a3.53,3.53 0 0 0 -5.12,-0.09l0,-0.00001z" id="svg_34"/>
   <path d="m313.56569,362.722932l-13.77,14a1.65,1.65 0 0 0 0,2.32l13.88,14.15a1.65,1.65 0 0 0 2.32,0l13.77,-13a1.66,1.66 0 0 0 0.08,-2.32l-13.86,-15.16a1.66,1.66 0 0 0 -2.42,0.01z" id="svg_35"/>
   <path d="m333.08569,382.192942l-13.77,14a1.65,1.65 0 0 0 0,2.32l13.87,14.20999a1.65,1.65 0 0 0 2.32,0l13.77,-13a1.66,1.66 0 0 0 0.08,-2.32l-13.86,-15.16a1.66,1.66 0 0 0 -2.41,-0.05l0,0.00001z" id="svg_36"/>
   <path d="m354.92569,404.062942l-13.78,14a1.65,1.65 0 0 0 0,2.31l13.86,14.22a1.66,1.66 0 0 0 2.32,0l13.77,-13a1.65,1.65 0 0 0 0.09,-2.32l-13.86,-15.16a1.66,1.66 0 0 0 -2.4,-0.05z" id="svg_37"/>
   <path d="m376.07569,425.192942l-13.77,14a1.65,1.65 0 0 0 0,2.32l13.86,14.20999a1.67,1.67 0 0 0 2.33,0l13.76,-13a1.65,1.65 0 0 0 0.09,-2.32l-13.86,-15.16a1.66,1.66 0 0 0 -2.41,-0.05l0,0.00001z" id="svg_38"/>
   <path d="m203.14569,296.952942l-11.09,11.24a3.53,3.53 0 0 0 0,4.95l11.29,11.56999a3.52,3.52 0 0 0 5,0.10001l11.08,-10.45a3.54,3.54 0 0 0 0.18,-5l-11.34,-12.31a3.52,3.52 0 0 0 -5.12,-0.1z" id="svg_39"/>
   <path d="m225.17569,318.982932l-11.09,11.21a3.53,3.53 0 0 0 0,4.95l11.29,11.57a3.52,3.52 0 0 0 5,0.1l11.08,-10.45a3.55,3.55 0 0 0 0.18,-5l-11.28,-12.33a3.52,3.52 0 0 0 -5.18,-0.05z" id="svg_40"/>
   <path d="m247.20569,341.012942l-11.09,11.18a3.53,3.53 0 0 0 0,4.95l11.28,11.56999a3.53,3.53 0 0 0 5,0.10001l11.08,-10.45a3.55,3.55 0 0 0 0.18,-5l-11.28,-12.34a3.53,3.53 0 0 0 -5.17,-0.01z" id="svg_41"/>
   <path d="m269.23569,363.042932l-11.09,11.22001a3.53,3.53 0 0 0 0,4.94999l11.28,11.57a3.53,3.53 0 0 0 5,0.10001l11.08,-10.45a3.55,3.55 0 0 0 0.18,-5l-11.28,-12.34a3.53,3.53 0 0 0 -5.17,-0.05l0,-0.00001z" id="svg_42"/>
   <path d="m292.65569,383.662932l-13.78,13.94a1.66,1.66 0 0 0 0,2.32l13.86,14.21a1.65,1.65 0 0 0 2.32,0l13.77,-13a1.65,1.65 0 0 0 0.09,-2.32l-13.86,-15.17a1.65,1.65 0 0 0 -2.4,0.02z" id="svg_43"/>
   <path d="m312.15569,403.192942l-13.78,13.94a1.66,1.66 0 0 0 0,2.32l13.86,14.20999a1.65,1.65 0 0 0 2.32,0l13.77,-13a1.65,1.65 0 0 0 0.09,-2.32l-13.85,-15.14999a1.65,1.65 0 0 0 -2.41,0z" id="svg_44"/>
   <path d="m333.98569,424.992942l-13.77,14a1.66,1.66 0 0 0 0,2.32l13.86,14.20999a1.65,1.65 0 0 0 2.32,0.05001l13.77,-13a1.65,1.65 0 0 0 0.09,-2.32l-13.87,-15.16001a1.66,1.66 0 0 0 -2.4,-0.1l0,0.00001z" id="svg_45"/>
   <path d="m355.14569,446.192942l-13.78,13.9a1.66,1.66 0 0 0 0,2.32l13.86,14.21a1.65,1.65 0 0 0 2.32,0.05l13.77,-13a1.65,1.65 0 0 0 0.09,-2.32l-13.84,-15.16a1.64,1.64 0 0 0 -2.42,0z" id="svg_46"/>
   <path d="m397.22569,446.362932l-13.77,14.00001a1.65,1.65 0 0 0 0,2.32l13.87,14.21a1.65,1.65 0 0 0 2.32,0.05l13.77,-13a1.66,1.66 0 0 0 0.08,-2.32l-13.86,-15.16001a1.66,1.66 0 0 0 -2.41,-0.1z" id="svg_47"/>
   <path d="m418.37569,467.522932l-13.81,13.94001a1.65,1.65 0 0 0 0,2.32l13.9,14.21a1.65,1.65 0 0 0 2.32,0.05l13.77,-13a1.66,1.66 0 0 0 0.08,-2.32l-13.86,-15.16a1.65,1.65 0 0 0 -2.4,-0.04l0,-0.00001z" id="svg_48"/>
   <path d="m311.22569,447.762942l-13,13.13a2.22,2.22 0 0 0 0,3.11l13.09,13.41999a2.22,2.22 0 0 0 3.11,0.06l13,-12.23a2.23,2.23 0 0 0 0.14,-3.06l-13.09,-14.32a2.23,2.23 0 0 0 -3.25,-0.11l0,0.00001z" id="svg_49"/>
   <path d="m332.37569,468.912932l-13,13.13a2.22,2.22 0 0 0 0,3.11l13.09,13.42a2.22,2.22 0 0 0 3.11,0.06l13,-12.23a2.22,2.22 0 0 0 0.12,-3.11l-13.13,-14.32a2.23,2.23 0 0 0 -3.19,-0.06z" id="svg_50"/>
   <path d="m353.56569,490.062932l-13,13.13a2.22,2.22 0 0 0 0,3.11l13.09,13.42a2.22,2.22 0 0 0 3.11,0.07l13,-12.24a2.21,2.21 0 0 0 0.12,-3.11l-13.09,-14.30999a2.21,2.21 0 0 0 -3.23,-0.07001z" id="svg_51"/>
   <path d="m375.09569,510.792932l-13.77,13.95001a1.66,1.66 0 0 0 0,2.32l13.87,14.21a1.65,1.65 0 0 0 2.32,0l13.77,-13a1.65,1.65 0 0 0 0.08,-2.32l-13.86,-15.16a1.66,1.66 0 0 0 -2.41,0l0,-0.00001z" id="svg_52"/>
   <path d="m159.76569,254.132942l-11.82,12.06a3.53,3.53 0 0 0 0,5l33,32.67a3.54,3.54 0 0 0 4.91,0.06l12.32,-11.59a3.54,3.54 0 0 0 0.07,-5.09l-33.5,-33.14a3.53,3.53 0 0 0 -4.98,0.03z" id="svg_53"/>
   <path d="m375.77569,467.472942l-14.45,14.72a1.68,1.68 0 0 0 0,2.34l35.61,35.25a1.65,1.65 0 0 0 2.3,0l15.06,-14.17a1.65,1.65 0 0 0 0,-2.38l-36.23,-35.84a1.66,1.66 0 0 0 -2.29,0.08z" id="svg_54"/>
   <path d="m225.56569,362.012942l-13.79,13.66a1.64,1.64 0 0 0 0,2.33l76.79,78.71a1.66,1.66 0 0 0 2.32,0l15,-14.15a1.65,1.65 0 0 0 0,-2.37l-78,-78.21a1.66,1.66 0 0 0 -2.32,0.03z" id="svg_55"/>
  </g>
  <path d="m201.69569,210.942942l-11.13,11.25a3.53,3.53 0 0 0 0,4.95l11.28,11.56999a3.54,3.54 0 0 0 5,0.10001l11.08,-10.46a3.53,3.53 0 0 0 0.18,-4.95l-11.28,-12.34a3.53,3.53 0 0 0 -5.13,-0.12z" fill="#464a5f" id="svg_56"/>
  <path d="m222.43569,231.692942l-11.09,11.22a3.53,3.53 0 0 0 0,4.95l11.28,11.57a3.53,3.53 0 0 0 5,0.1l11.08,-10.45a3.55,3.55 0 0 0 0.18,-5l-11.32,-12.3a3.53,3.53 0 0 0 -5.13,-0.09z" fill="#464a5f" id="svg_57"/>
  <path d="m244.21569,253.462932l-11.09,11.23001a3.54,3.54 0 0 0 0,4.95l11.27,11.55a3.54,3.54 0 0 0 5,0.1l11.08,-10.46a3.53,3.53 0 0 0 0.18,-5l-11.28,-12.34a3.53,3.53 0 0 0 -5.16,-0.03l0,-0.00001z" fill="#464a5f" id="svg_58"/>
  <path d="m266.23569,275.492942l-11.08,11.22a3.55,3.55 0 0 0 0,5l11.29,11.57a3.54,3.54 0 0 0 5,0.1l11.07,-10.46a3.52,3.52 0 0 0 0.19,-4.95l-11.34,-12.38a3.54,3.54 0 0 0 -5.13,-0.1z" fill="#464a5f" id="svg_59"/>
  <path d="m288.26569,297.522932l-11.08,11.22001a3.54,3.54 0 0 0 0,5l11.29,11.56a3.54,3.54 0 0 0 5,0.11l11.07,-10.46a3.52,3.52 0 0 0 0.19,-5l-11.28,-12.34a3.54,3.54 0 0 0 -5.19,-0.09l0,-0.00001z" fill="#464a5f" id="svg_60"/>
  <path d="m311.68569,318.192942l-13.77,13.89999a1.65,1.65 0 0 0 0,2.31l13.87,14.22001a1.66,1.66 0 0 0 2.32,0.05l13.77,-13a1.65,1.65 0 0 0 0.08,-2.32l-13.87,-15.16a1.66,1.66 0 0 0 -2.4,0z" fill="#464a5f" id="svg_61"/>
  <path d="m333.71569,340.192942l-13.77,13.95a1.65,1.65 0 0 0 0,2.31l13.87,14.22a1.66,1.66 0 0 0 2.32,0l13.77,-13a1.65,1.65 0 0 0 0.08,-2.32l-13.87,-15.16a1.66,1.66 0 0 0 -2.4,0z" fill="#464a5f" id="svg_62"/>
  <path d="m353.21569,359.672932l-13.77,13.95a1.65,1.65 0 0 0 0,2.31l13.86,14.26a1.66,1.66 0 0 0 2.32,0l13.77,-13a1.65,1.65 0 0 0 0.08,-2.32l-13.86,-15.16a1.66,1.66 0 0 0 -2.4,-0.04z" fill="#464a5f" id="svg_63"/>
  <path d="m375.05569,381.512942l-13.77,13.94a1.65,1.65 0 0 0 0,2.31999l13.87,14.21a1.65,1.65 0 0 0 2.32,0.05l13.77,-13a1.66,1.66 0 0 0 0.08,-2.32l-13.86,-15.17a1.66,1.66 0 0 0 -2.41,-0.02999z" fill="#464a5f" id="svg_64"/>
  <path d="m396.20569,402.662932l-13.77,13.94a1.65,1.65 0 0 0 0,2.32l13.86,14.27a1.66,1.66 0 0 0 2.32,0l13.77,-13a1.66,1.66 0 0 0 0.08,-2.32l-13.9,-15.16a1.66,1.66 0 0 0 -2.36,-0.05z" fill="#464a5f" id="svg_65"/>
  <path d="m417.35569,423.812942l-13.77,14a1.65,1.65 0 0 0 0,2.31l13.87,14.22a1.66,1.66 0 0 0 2.32,0l13.77,-13a1.65,1.65 0 0 0 0.08,-2.32l-13.86,-15.16a1.66,1.66 0 0 0 -2.41,-0.05z" fill="#464a5f" id="svg_66"/>
  <path d="m438.50569,444.962932l-13.77,14a1.66,1.66 0 0 0 0,2.32l13.83,14.16a1.66,1.66 0 0 0 2.32,0l13.77,-13a1.65,1.65 0 0 0 0.08,-2.32l-13.86,-15.16a1.66,1.66 0 0 0 -2.37,0z" fill="#464a5f" id="svg_67"/>
  <path d="m181.56569,231.082942l-11.08,11.22a3.53,3.53 0 0 0 0,4.95l11.29,11.57a3.53,3.53 0 0 0 5,0.1l11.07,-10.45a3.54,3.54 0 0 0 0.19,-5l-11.35,-12.28a3.54,3.54 0 0 0 -5.12,-0.11z" fill="#464a5f" id="svg_68"/>
  <path d="m137.56569,275.072942l-11.09,11.22a3.54,3.54 0 0 0 0,5l11.29,11.56a3.53,3.53 0 0 0 4.95,0.11l11.08,-10.46a3.54,3.54 0 0 0 0.18,-5l-11.29,-12.31a3.52,3.52 0 0 0 -5.12,-0.12z" fill="#464a5f" id="svg_69"/>
  <path d="m202.30569,251.822942l-11.09,11.22a3.53,3.53 0 0 0 0,4.95l11.28,11.57a3.53,3.53 0 0 0 5,0.1l11.07,-10.47a3.55,3.55 0 0 0 0.18,-5l-11.28,-12.33a3.52,3.52 0 0 0 -5.16,-0.04z" fill="#464a5f" id="svg_70"/>
  <path d="m224.07569,273.592932l-11.08,11.23001a3.53,3.53 0 0 0 0,4.94999l11.29,11.57a3.53,3.53 0 0 0 5,0.10001l11.07,-10.45a3.54,3.54 0 0 0 0.19,-5l-11.34,-12.3a3.55,3.55 0 0 0 -5.13,-0.10001z" fill="#464a5f" id="svg_71"/>
  <path d="m246.10569,295.622942l-11.08,11.23a3.53,3.53 0 0 0 0,4.95l11.29,11.57a3.53,3.53 0 0 0 4.95,0.1l11.08,-10.45a3.54,3.54 0 0 0 0.19,-5l-11.28,-12.34a3.54,3.54 0 0 0 -5.15,-0.06z" fill="#464a5f" id="svg_72"/>
  <path d="m159.01569,295.112932l-11.09,11.22001a3.53,3.53 0 0 0 0,4.94999l11.28,11.57a3.53,3.53 0 0 0 5,0.10001l11.08,-10.45a3.55,3.55 0 0 0 0.18,-5l-11.33,-12.31a3.52,3.52 0 0 0 -5.12,-0.08l0,-0.00001z" fill="#464a5f" id="svg_73"/>
  <path d="m180.78569,316.882942l-11.08,11.23a3.53,3.53 0 0 0 0,4.95l11.29,11.57a3.54,3.54 0 0 0 5,0.1l11.07,-10.45a3.54,3.54 0 0 0 0.19,-5l-11.28,-12.34a3.54,3.54 0 0 0 -5.19,-0.06z" fill="#464a5f" id="svg_74"/>
  <path d="m202.81569,338.912932l-11.08,11.28a3.53,3.53 0 0 0 0,4.95l11.29,11.57a3.54,3.54 0 0 0 5,0.1l11.07,-10.46a3.52,3.52 0 0 0 0.19,-4.95l-11.28,-12.33999a3.54,3.54 0 0 0 -5.19,-0.15l0,-0.00001z" fill="#464a5f" id="svg_75"/>
  <path d="m268.13569,317.652932l-11.08,11.23001a3.53,3.53 0 0 0 0,4.95l11.29,11.56999a3.53,3.53 0 0 0 5,0.10001l11.08,-10.46a3.52,3.52 0 0 0 0.18,-5l-11.28,-12.34a3.53,3.53 0 0 0 -5.19,-0.05l0,-0.00001z" fill="#464a5f" id="svg_76"/>
  <path d="m290.16569,339.682942l-11.09,11.23a3.53,3.53 0 0 0 0,4.95l11.29,11.57a3.53,3.53 0 0 0 5,0.1l11.08,-10.46a3.52,3.52 0 0 0 0.18,-4.95l-11.28,-12.34a3.53,3.53 0 0 0 -5.18,-0.1z" fill="#464a5f" id="svg_77"/>
  <path d="m313.56569,360.302932l-13.77,13.95a1.65,1.65 0 0 0 0,2.32l13.87,14.21a1.65,1.65 0 0 0 2.32,0l13.77,-13a1.66,1.66 0 0 0 0.08,-2.32l-13.86,-15.16a1.66,1.66 0 0 0 -2.41,0z" fill="#464a5f" id="svg_78"/>
  <path d="m333.08569,379.802932l-13.77,13.95a1.65,1.65 0 0 0 0,2.32l13.87,14.21a1.65,1.65 0 0 0 2.32,0l13.77,-13a1.66,1.66 0 0 0 0.08,-2.32l-13.86,-15.16a1.66,1.66 0 0 0 -2.41,0z" fill="#464a5f" id="svg_79"/>
  <path d="m354.92569,401.642942l-13.78,13.94999a1.65,1.65 0 0 0 0,2.31l13.86,14.22001a1.66,1.66 0 0 0 2.32,0l13.77,-13a1.65,1.65 0 0 0 0.09,-2.32l-13.86,-15.11a1.66,1.66 0 0 0 -2.4,-0.05z" fill="#464a5f" id="svg_80"/>
  <path d="m376.07569,422.792932l-13.77,13.95a1.65,1.65 0 0 0 0,2.32l13.86,14.21a1.67,1.67 0 0 0 2.33,0l13.76,-13a1.65,1.65 0 0 0 0.09,-2.32l-13.86,-15.16a1.66,1.66 0 0 0 -2.41,0z" fill="#464a5f" id="svg_81"/>
  <path d="m203.14569,294.532932l-11.09,11.22001a3.53,3.53 0 0 0 0,4.95l11.29,11.56999a3.52,3.52 0 0 0 5,0.10001l11.08,-10.45a3.54,3.54 0 0 0 0.18,-5l-11.34,-12.29a3.52,3.52 0 0 0 -5.12,-0.10001z" fill="#464a5f" id="svg_82"/>
  <path d="m225.17569,316.562942l-11.09,11.22a3.53,3.53 0 0 0 0,5l11.29,11.57a3.52,3.52 0 0 0 5,0.1l11.08,-10.45a3.55,3.55 0 0 0 0.18,-5l-11.28,-12.33a3.52,3.52 0 0 0 -5.18,-0.11z" fill="#464a5f" id="svg_83"/>
  <path d="m247.20569,338.592932l-11.09,11.22001a3.53,3.53 0 0 0 0,4.95l11.28,11.57a3.53,3.53 0 0 0 5,0.1l11.08,-10.45a3.55,3.55 0 0 0 0.18,-5l-11.28,-12.34a3.53,3.53 0 0 0 -5.17,-0.05l0,-0.00001z" fill="#464a5f" id="svg_84"/>
  <path d="m269.23569,360.612932l-11.09,11.23a3.53,3.53 0 0 0 0,5l11.28,11.57a3.53,3.53 0 0 0 5,0.10001l11.08,-10.45a3.55,3.55 0 0 0 0.18,-5l-11.28,-12.34a3.54,3.54 0 0 0 -5.17,-0.11l0,-0.00001z" fill="#464a5f" id="svg_85"/>
  <path d="m292.65569,381.242942l-13.78,13.95a1.66,1.66 0 0 0 0,2.32l13.86,14.20999a1.65,1.65 0 0 0 2.32,0.05l13.77,-13a1.66,1.66 0 0 0 0.09,-2.32999l-13.86,-15.16001a1.65,1.65 0 0 0 -2.4,-0.04l0,0.00001z" fill="#464a5f" id="svg_86"/>
  <path d="m312.15569,400.742942l-13.78,13.94a1.66,1.66 0 0 0 0,2.32l13.86,14.19a1.65,1.65 0 0 0 2.32,0.05l13.77,-13a1.66,1.66 0 0 0 0.09,-2.33l-13.85,-15.13a1.65,1.65 0 0 0 -2.41,-0.04z" fill="#464a5f" id="svg_87"/>
  <path d="m333.98569,422.572942l-13.77,14a1.66,1.66 0 0 0 0,2.32l13.86,14.20999a1.65,1.65 0 0 0 2.32,0l13.77,-13a1.65,1.65 0 0 0 0.09,-2.32l-13.87,-15.16a1.66,1.66 0 0 0 -2.4,-0.05l0,0.00001z" fill="#464a5f" id="svg_88"/>
  <path d="m355.14569,443.732932l-13.78,13.94a1.66,1.66 0 0 0 0,2.32001l13.86,14.2a1.65,1.65 0 0 0 2.32,0l13.77,-13a1.65,1.65 0 0 0 0.09,-2.32l-13.84,-15.10001a1.64,1.64 0 0 0 -2.42,-0.04z" fill="#464a5f" id="svg_89"/>
  <path d="m397.22569,443.942942l-13.77,13.99999a1.65,1.65 0 0 0 0,2.32001l13.87,14.21a1.65,1.65 0 0 0 2.32,0l13.77,-13a1.66,1.66 0 0 0 0.08,-2.32001l-13.87,-15.16a1.66,1.66 0 0 0 -2.4,-0.05l0,0.00001z" fill="#464a5f" id="svg_90"/>
  <path d="m418.37569,465.092942l-13.77,14a1.65,1.65 0 0 0 0,2.32l13.87,14.21a1.65,1.65 0 0 0 2.32,0l13.77,-13a1.66,1.66 0 0 0 0.08,-2.32l-13.87,-15.11a1.66,1.66 0 0 0 -2.4,-0.1z" fill="#464a5f" id="svg_91"/>
  <path d="m311.22569,445.342932l-13,13.13001a2.22,2.22 0 0 0 0,3.11l13.09,13.42a2.22,2.22 0 0 0 3.11,0.05999l13,-12.23a2.23,2.23 0 0 0 0.12,-3.11l-13.09,-14.32a2.23,2.23 0 0 0 -3.23,-0.06z" fill="#464a5f" id="svg_92"/>
  <path d="m332.37569,466.492942l-13,13.13a2.22,2.22 0 0 0 0,3.11l13.12,13.46a2.22,2.22 0 0 0 3.07,0l13,-12.23a2.22,2.22 0 0 0 0.12,-3.11l-13.12,-14.3a2.23,2.23 0 0 0 -3.19,-0.06z" fill="#464a5f" id="svg_93"/>
  <path d="m353.56569,487.642942l-13,13.12999a2.22,2.22 0 0 0 0,3.11001l13.09,13.41999a2.21,2.21 0 0 0 3.11,0.06l13,-12.23a2.21,2.21 0 0 0 0.12,-3.11l-13.09,-14.32a2.22,2.22 0 0 0 -3.23,-0.06l0,0.00001z" fill="#464a5f" id="svg_94"/>
  <path d="m375.09569,508.372942l-13.77,14a1.66,1.66 0 0 0 0,2.32l13.87,14.21a1.66,1.66 0 0 0 2.32,0.05l13.77,-13a1.65,1.65 0 0 0 0.08,-2.32l-13.86,-15.16a1.66,1.66 0 0 0 -2.41,-0.1z" fill="#464a5f" id="svg_95"/>
  <path d="m159.76569,251.712932l-11.82,12.07a3.53,3.53 0 0 0 0,5l33,32.67001a3.54,3.54 0 0 0 4.91,0.06l12.32,-11.59a3.54,3.54 0 0 0 0.07,-5.09l-33.5,-33.14a3.53,3.53 0 0 0 -4.98,0.02l0,-0.00001z" fill="#464a5f" id="svg_96"/>
  <path d="m375.77569,465.052932l-14.45,14.75a1.68,1.68 0 0 0 0,2.34001l35.61,35.25a1.65,1.65 0 0 0 2.3,0l15.06,-14.17a1.65,1.65 0 0 0 0,-2.38l-36.23,-35.84a1.65,1.65 0 0 0 -2.29,0.04999z" fill="#464a5f" id="svg_97"/>
  <path d="m225.56569,359.592932l-13.79,13.66001a1.64,1.64 0 0 0 0,2.33l76.79,78.70999a1.66,1.66 0 0 0 2.32,0l15,-14.14999a1.65,1.65 0 0 0 0,-2.37001l-78,-78.20999a1.66,1.66 0 0 0 -2.32,0.02999z" fill="#464a5f" id="svg_98"/>
  <path d="m171.39569,369.192942l-60.63,60.23a9,9 0 0 0 -0.1,12.66l112.14,115.16a9,9 0 0 0 12.76,0.14l62.43,-61.41a9,9 0 0 0 0.05,-12.77l-113.94,-114.01a9,9 0 0 0 -12.71,0z" opacity="0.1" id="svg_99"/>
  <path d="m171.39569,366.722932l-60.63,60.28001a9,9 0 0 0 -0.1,12.66l112.14,115.16a9,9 0 0 0 12.76,0.14l62.43,-61.41a9,9 0 0 0 0.05,-12.77l-113.94,-114a9,9 0 0 0 -12.71,-0.06l0,-0.00001z" fill="#939498" id="svg_100"/>
  <path d="m229.63569,50.652932l-15.35,107.32l284.42,283.51l14.48,-106.38a18.8,18.8 0 0 0 -5.35,-15.83l-271.89,-270.74a3.72,3.72 0 0 0 -6.31,2.12z" fill="#6c63ff" id="svg_101"/>
 </g>
</svg>